<svg width="50" height="52" viewBox="0 0 50 52" fill="none" xmlns="http://www.w3.org/2000/svg">
<path d="M15.0085 14.7888H11.9022C8.60034 14.7888 6.9508 14.7888 5.77643 15.5514C4.74588 16.2205 3.9537 17.2776 3.54004 18.5384C3.06894 19.9743 3.34011 21.8161 3.88225 25.4986L3.88338 25.5055L6.25462 41.6119C6.65687 44.3442 6.85931 45.7109 7.46151 46.736C7.99235 47.6397 8.73749 48.3542 9.61216 48.7984C10.6044 49.3023 11.8273 49.3025 14.2741 49.3025H36.0684C38.5152 49.3025 39.7373 49.3023 40.7295 48.7984C41.6042 48.3542 42.3499 47.6397 42.8807 46.736C43.4829 45.7109 43.6843 44.3442 44.0865 41.6119L46.4578 25.5055L46.4601 25.4943C47.0018 21.8147 47.2728 19.9737 46.8019 18.5384C46.3883 17.2776 45.5979 16.2205 44.5674 15.5514C43.393 14.7888 41.7408 14.7888 38.439 14.7888H35.3333M15.0085 14.7888H35.3333M15.0085 14.7888C15.0085 8.43496 19.5583 3.28418 25.1709 3.28418C30.7835 3.28418 35.3333 8.43496 35.3333 14.7888" stroke="#592D84" stroke-width="5" stroke-linecap="round" stroke-linejoin="round"/>
</svg>
