<svg width="38" height="38" viewBox="0 0 38 38" fill="none" xmlns="http://www.w3.org/2000/svg">
<path d="M27.7087 10.291H27.7245M11.0837 3.16602H26.917C31.2892 3.16602 34.8337 6.71043 34.8337 11.0827V26.916C34.8337 31.2883 31.2892 34.8327 26.917 34.8327H11.0837C6.7114 34.8327 3.16699 31.2883 3.16699 26.916V11.0827C3.16699 6.71043 6.7114 3.16602 11.0837 3.16602ZM25.3337 18.0018C25.5291 19.3196 25.304 20.6654 24.6904 21.8478C24.0769 23.0302 23.1061 23.9891 21.9162 24.588C20.7263 25.1869 19.3779 25.3954 18.0627 25.1837C16.7474 24.9721 15.5324 24.3511 14.5905 23.4092C13.6485 22.4672 13.0276 21.2522 12.8159 19.937C12.6043 18.6218 12.8128 17.2733 13.4117 16.0834C14.0106 14.8935 14.9695 13.9228 16.1519 13.3092C17.3343 12.6957 18.6801 12.4706 19.9978 12.666C21.342 12.8653 22.5863 13.4917 23.5472 14.4525C24.508 15.4133 25.1343 16.6577 25.3337 18.0018Z" stroke="#592D84" stroke-width="5" stroke-linecap="round" stroke-linejoin="round"/>
</svg>
