<svg width="44" height="46" viewBox="0 0 44 46" fill="none" xmlns="http://www.w3.org/2000/svg">
<path d="M16.7271 5.67377C16.0859 3.97161 14.5334 2.85547 12.8069 2.85547H6.9999C4.79081 2.85547 3 4.75665 3 7.10243C3 27.0416 18.2224 43.206 36.9996 43.206C39.2086 43.206 40.999 41.3042 40.999 38.9584L41 32.791C41 30.9577 39.9492 29.3094 38.3462 28.6285L32.7805 26.2654C31.3406 25.6538 29.7013 25.929 28.5099 26.9833L27.0735 28.2554C25.3959 29.7399 22.9276 29.6218 21.3835 27.9822L17.3388 23.6832C15.7947 22.0435 15.6806 19.4246 17.0785 17.6432L18.2763 16.118C19.2691 14.8529 19.5306 13.1116 18.9547 11.5826L16.7271 5.67377Z" stroke="#592D84" stroke-width="5" stroke-linecap="round" stroke-linejoin="round"/>
</svg>
